<svg width="800px"
    height="800px"
    xmlns="http://www.w3.org/2000/svg"
    viewBox="0 0 512 512">
    <g transform="translate(0,512) scale(0.1,-0.1)" fill="#191919" stroke="none">
        <path d="M685 4815 c-286 -167 -521 -308 -523 -313 -3 -10 1024 -615 1044 -615 12 0 1053 605 1053 613 0 4 -799 474 -998 587 l-57 32 -519 -304z"/>
        <path d="M3395 4815 c-286 -167 -521 -308 -523 -313 -3 -10 1024 -615 1044 -615 12 0 1053 605 1053 613 0 4 -799 474 -998 587 l-57 32 -519 -304z"/>
        <path d="M2 3618 l3 -622 515 -303 c283 -166 521 -302 528 -302 9 -1 12 128 12 613 l0 614 -457 268 c-252 147 -491 287 -531 311 l-72 43 2 -622z"/>
        <path d="M1878 3927 l-528 -309 0 -614 c0 -432 3 -614 11 -614 12 0 1016 586 1037 604 9 9 12 143 10 627 l-3 615 -527 -309z"/>
        <path d="M2712 3618 l3 -622 515 -303 c283 -166 521 -302 528 -302 9 -1 12 128 12 613 l0 614 -457 268 c-252 147 -491 287 -531 311 l-72 43 2 -622z"/>
        <path d="M4588 3927 l-528 -309 0 -614 c0 -432 3 -614 11 -614 12 0 1016 586 1037 604 9 9 12 143 10 627 l-3 615 -527 -309z"/>
        <path d="M2033 2432 c-288 -169 -523 -309 -523 -312 0 -3 236 -144 525 -313 l525 -308 525 308 c289 169 525 309 525 312 0 6 -1033 614 -1048 618 -4 1 -242 -137 -529 -305z"/>
        <path d="M1352 1234 l3 -616 525 -307 525 -308 3 615 c1 339 -1 619 -5 623 -14 14 -1034 609 -1044 609 -6 0 -8 -227 -7 -616z"/>
        <path d="M3230 1545 l-515 -302 -3 -622 c-2 -591 -1 -621 15 -612 10 6 248 145 528 309 l510 299 3 617 c2 490 0 616 -10 615 -7 0 -245 -137 -528 -304z"/>
    </g>
</svg>